<svg version="1.1" id="Layer_1" xmlns="http://www.w3.org/2000/svg" xmlns:xlink="http://www.w3.org/1999/xlink" x="0px" y="0px"
	 width="100%" viewBox="0 0 853 853" enable-background="new 0 0 853 853" xml:space="preserve">
<path fill="#FFFFFF" opacity="1.000000" stroke="none" 
	d="
M555.000000,854.000000 
	C370.000061,854.000000 185.500107,854.000000 1.000124,854.000000 
	C1.000082,569.666809 1.000082,285.333618 1.000041,1.000314 
	C285.333099,1.000210 569.666199,1.000210 853.999512,1.000105 
	C853.999634,285.333038 853.999634,569.666077 853.999817,853.999512 
	C754.500000,854.000000 655.000000,854.000000 555.000000,854.000000 
M381.968079,505.976776 
	C382.476776,512.142517 382.985443,518.308289 383.494110,524.473999 
	C384.206848,524.433472 384.919586,524.392883 385.632324,524.352295 
	C385.632324,494.640076 385.632324,464.927856 385.632324,435.265045 
	C396.377899,435.265045 406.110291,435.265045 416.550446,435.265045 
	C416.550446,471.580109 416.550446,507.517029 416.550446,543.453979 
	C417.002991,543.451843 417.455505,543.449646 417.908051,543.447510 
	C417.908051,530.564758 417.908051,517.681946 417.908051,504.799164 
	C418.030884,504.812347 418.153748,504.825531 418.276581,504.838715 
	C419.317657,516.019836 420.358734,527.200989 421.399811,538.382141 
	C421.749420,538.398132 422.099060,538.414124 422.448700,538.430115 
	C423.009949,504.089844 423.571198,469.749573 424.134766,435.267334 
	C433.976776,435.267334 443.525757,435.267334 454.396179,435.267334 
	C454.396179,466.818970 454.396179,497.995026 454.396179,529.171082 
	C455.059021,529.196533 455.721832,529.221924 456.384674,529.247375 
	C456.755280,524.914551 457.125854,520.581787 457.496460,516.248962 
	C457.840485,516.267151 458.184479,516.285278 458.528503,516.303406 
	C458.841248,518.239197 459.153992,520.174988 459.466736,522.110779 
	C459.957153,522.093994 460.447540,522.077209 460.937958,522.060425 
	C460.937958,503.244354 461.016815,484.427704 460.876373,465.612671 
	C460.845581,461.486084 462.473877,459.930969 466.455017,459.975250 
	C471.449188,460.030762 476.449219,459.629822 481.442200,459.709778 
	C498.950928,459.990234 513.688843,455.382996 521.863464,438.065277 
	C522.614075,436.475189 525.467102,435.433807 527.528625,434.983673 
	C536.100952,433.111877 545.024170,432.428223 553.310791,429.741943 
	C582.618042,420.241333 601.918518,389.591736 598.164185,359.111420 
	C594.847534,332.185211 579.933838,313.619263 555.772400,302.193054 
	C552.090881,300.452026 550.702087,298.493042 550.818054,294.369293 
	C551.311951,276.806885 546.630188,260.559662 538.034241,245.251724 
	C515.733032,205.537262 469.335358,192.819733 437.705933,202.081482 
	C420.354065,207.162430 404.181335,214.527100 392.610107,229.106308 
	C385.734741,237.768982 379.623779,247.038376 372.724274,256.655060 
	C370.953766,256.209625 367.898590,255.489822 364.869965,254.671600 
	C326.599640,244.332230 292.429596,266.465607 283.822021,301.511749 
	C282.247620,307.922089 281.848755,314.677704 281.481628,321.305725 
	C281.278656,324.969818 279.901917,326.248169 276.491150,327.277374 
	C256.237885,333.388733 242.713211,347.496399 238.499512,367.431946 
	C230.900345,403.384644 255.550934,431.207642 285.804291,433.838623 
	C294.090790,434.559296 302.428467,434.783234 310.748688,434.979919 
	C314.105103,435.059235 315.464294,436.154022 315.448822,439.650696 
	C315.424561,445.140594 315.828400,450.635529 316.142578,456.123077 
	C316.823303,468.011139 322.493347,476.967529 332.534698,483.119415 
	C340.585144,488.051483 349.749084,487.710999 358.707214,487.974335 
	C365.317291,488.168640 371.937683,488.012482 379.140930,488.012482 
	C379.140930,492.664886 379.140930,496.789246 378.971985,501.851685 
	C378.971985,511.875885 378.971985,521.900085 378.971985,531.924255 
	C379.638214,531.925232 380.304443,531.926208 380.970673,531.927246 
	C380.970673,525.189270 380.890076,518.449768 381.016296,511.714142 
	C381.057953,509.489868 381.633240,507.275574 381.968079,505.976776 
M260.919373,596.537354 
	C261.039337,590.927673 257.755798,587.717163 252.689041,585.479553 
	C256.839294,582.170471 259.152618,578.348999 257.574188,573.151306 
	C256.304932,568.971680 253.067017,566.687683 249.090836,566.411377 
	C242.686203,565.966370 236.228012,566.291931 229.665253,566.291931 
	C229.665253,580.693176 229.665253,594.720276 229.665253,609.009460 
	C236.071213,609.009460 242.060638,609.124084 248.043915,608.981323 
	C256.093628,608.789307 259.641235,605.489258 260.919373,596.537354 
M607.613831,599.440918 
	C607.613708,588.804565 607.697632,578.166687 607.507141,567.533752 
	C607.483398,566.206543 606.007812,564.905334 605.205017,563.592041 
	C604.290405,564.954163 602.718445,566.256104 602.587219,567.690002 
	C602.223938,571.660339 602.461304,575.685730 602.461304,580.236267 
	C590.862671,572.839600 580.557739,576.127441 578.637390,587.518555 
	C577.847656,592.202698 578.396667,597.572144 579.935181,602.084961 
	C582.446838,609.452820 591.556091,611.939026 598.188171,607.878906 
	C599.431641,607.117676 600.545837,606.145386 600.536072,606.152649 
	C603.060181,607.509277 604.851074,608.471863 607.613098,609.956360 
	C607.613098,605.697021 607.613098,603.057434 607.613831,599.440918 
M439.767914,593.577148 
	C441.072235,596.606262 441.877136,599.998657 443.769257,602.600281 
	C451.116760,612.702942 468.089569,611.953796 473.441284,601.569763 
	C475.065765,598.417664 474.742981,596.626648 470.894592,596.396729 
	C466.717133,603.681519 462.087097,606.160461 455.591736,604.677002 
	C449.128723,603.200928 445.228363,598.095398 444.977112,590.196167 
	C444.872528,586.908813 445.007416,583.479614 445.831818,580.323486 
	C447.885437,572.461182 453.952393,568.636292 461.741516,570.655579 
	C465.165009,571.543152 468.157135,574.094788 471.757080,576.122925 
	C474.569550,574.382568 474.770386,573.768555 472.182159,570.847351 
	C467.313812,565.352661 460.980713,564.748535 454.298248,565.995667 
	C446.784912,567.397888 442.137329,572.310669 440.394440,579.418945 
	C439.351593,583.672058 439.800171,588.290894 439.767914,593.577148 
M349.912781,601.086365 
	C349.906158,595.920166 349.961609,590.752930 349.873474,585.588074 
	C349.801514,581.369812 348.025909,578.106750 343.815430,576.797302 
	C338.408234,575.115723 333.299896,575.866638 328.640137,579.239502 
	C325.770203,581.316833 326.227081,583.076355 327.822266,584.145752 
	C332.113800,582.704712 335.380707,581.210388 338.806244,580.584595 
	C341.495636,580.093262 344.814331,581.017273 344.583832,584.368164 
	C344.468140,586.049500 341.848999,588.110596 339.905182,588.988586 
	C336.765259,590.406738 333.124146,590.687988 329.922302,592.003357 
	C326.056335,593.591614 324.774414,597.032104 325.137604,601.035461 
	C325.500183,605.032654 327.421844,607.853027 331.445679,609.123718 
	C336.752106,610.799500 341.171967,609.090088 343.911224,606.614319 
	C347.890228,607.812195 350.843994,608.701355 353.797791,609.590576 
	C354.122772,609.000549 354.447723,608.410522 354.772705,607.820496 
	C353.961212,606.909485 353.123749,606.020020 352.345306,605.081543 
	C351.509155,604.073608 350.728516,603.019531 349.912781,601.086365 
M409.659485,579.087585 
	C406.697021,586.888306 403.734528,594.688965 400.472198,603.279297 
	C397.225220,594.973328 394.174438,587.601196 391.486694,580.098938 
	C390.272247,576.709106 388.578186,575.660034 385.034790,577.228149 
	C388.777313,586.844299 392.448639,596.272217 396.115753,605.701843 
	C399.014954,613.156860 395.680664,618.043884 387.803772,618.255127 
	C386.496765,618.290161 385.224884,619.634521 383.122284,620.841248 
	C391.410278,624.366699 397.016846,622.712341 400.018524,616.278381 
	C402.895660,610.111267 405.171936,603.660950 407.645874,597.309265 
	C410.272308,590.566040 412.820679,583.792480 415.403107,577.032166 
	C415.079559,576.680908 414.756012,576.329590 414.432465,575.978333 
	C412.925293,576.780945 411.418091,577.583618 409.659485,579.087585 
M567.503723,579.249878 
	C566.459229,578.359070 565.414673,577.468201 564.370178,576.577393 
	C563.696045,577.686768 562.493469,578.769775 562.436523,579.909973 
	C562.146423,585.721252 562.459412,591.573486 561.965393,597.360596 
	C561.503845,602.766541 557.618774,605.595947 552.320251,605.189148 
	C547.796448,604.841797 546.398071,602.901978 546.328064,596.653442 
	C546.259155,590.497742 546.280518,584.341003 546.220642,578.185181 
	C546.216309,577.742126 545.872864,577.302368 545.547302,576.528809 
	C544.178711,576.651978 542.789551,576.776917 541.196045,576.920288 
	C541.196045,583.663879 541.193481,589.974854 541.198669,596.285889 
	C541.199524,597.283997 541.174194,598.287537 541.263977,599.279297 
	C542.068237,608.160828 549.839417,612.416626 557.867676,608.366577 
	C559.028381,607.781067 560.122437,607.063293 560.549561,606.814026 
	C562.998657,607.839417 564.857056,608.617493 567.510864,609.728577 
	C567.510864,599.034973 567.510864,589.568970 567.503723,579.249878 
M507.309998,578.633484 
	C501.380463,584.083435 499.519409,592.622498 502.465973,600.520020 
	C504.469574,605.890198 508.370575,608.909180 513.947083,609.584656 
	C519.551025,610.263428 524.534851,608.862854 528.147827,604.170166 
	C532.581726,598.411194 532.459106,586.841370 527.948547,581.115967 
	C523.656433,575.667725 515.892212,574.535706 507.309998,578.633484 
M293.572388,578.593567 
	C292.280640,577.822388 290.988892,577.051270 289.232849,576.002930 
	C289.232849,587.855774 289.232849,598.278259 289.232849,608.592407 
	C292.918976,609.784851 293.944031,608.413757 293.866760,605.071838 
	C293.740082,599.589539 293.623993,594.064331 294.157410,588.621216 
	C294.712799,582.953979 298.641479,580.104919 304.165771,580.498230 
	C308.908844,580.835938 310.286346,582.751099 310.338867,589.348877 
	C310.390076,595.782837 310.350006,602.217468 310.350006,609.035156 
	C312.420990,608.885681 313.805573,608.785767 315.491272,608.664062 
	C315.491272,601.797241 315.603699,595.322327 315.453827,588.853516 
	C315.344452,584.131104 314.980835,579.205322 309.745239,577.090576 
	C304.585419,575.006470 299.648560,575.538879 295.441864,579.666138 
	C295.193237,579.910095 294.245300,579.441223 293.572388,578.593567 
M362.172211,601.400879 
	C362.172211,603.831604 362.172211,606.262329 362.172211,609.074402 
	C364.295258,608.912842 365.682770,608.807251 367.386505,608.677673 
	C367.386505,602.800964 367.207581,597.311340 367.426758,591.837524 
	C367.792664,582.699890 370.425476,580.517639 379.711029,581.391479 
	C380.086548,580.229126 380.477692,579.018433 380.858826,577.838623 
	C375.245544,575.234436 372.309113,575.838135 367.173615,580.715820 
	C367.365662,576.679138 365.837982,575.381104 362.172455,577.342712 
	C362.172455,585.120544 362.172455,592.775024 362.172211,601.400879 
M488.918091,566.922607 
	C489.217865,562.801697 486.907623,563.227478 483.975433,564.121582 
	C483.975433,568.514587 483.974792,572.782410 483.975525,577.050293 
	C483.976990,585.364990 483.885742,593.681213 484.014771,601.993896 
	C484.097931,607.350403 488.221161,610.877197 492.690826,609.539795 
	C493.546875,609.283630 494.654449,608.146606 494.690094,607.371887 
	C494.723267,606.650024 493.476135,605.214783 492.804810,605.222046 
	C488.688446,605.266418 488.910889,602.509399 488.914093,599.757507 
	C488.926544,589.114685 488.918701,578.471802 488.918091,566.922607 
M271.172180,591.503662 
	C271.172180,597.244873 271.172180,602.986084 271.172180,609.109253 
	C273.342590,608.915588 274.718140,608.792847 276.045502,608.674377 
	C276.045502,597.823730 276.045502,587.411133 276.045502,576.824585 
	C274.371460,576.824585 272.980896,576.824585 271.172455,576.824585 
	C271.172455,581.600159 271.172455,586.053711 271.172180,591.503662 
M276.941498,566.009277 
	C275.342163,565.384155 273.764221,564.437134 272.130646,564.328735 
	C271.636139,564.295959 270.346222,566.734192 270.586914,567.769348 
	C270.836365,568.842224 273.030426,570.535034 273.449860,570.300964 
	C274.870087,569.508362 275.881012,567.982422 276.941498,566.009277 
z"/>
<path fill="#3EB8FF" opacity="1.000000" stroke="none" 
	d="
M379.140930,500.913605 
	C379.140930,496.789246 379.140930,492.664886 379.140930,488.012482 
	C371.937683,488.012482 365.317291,488.168640 358.707214,487.974335 
	C349.749084,487.710999 340.585144,488.051483 332.534698,483.119415 
	C322.493347,476.967529 316.823303,468.011139 316.142578,456.123077 
	C315.828400,450.635529 315.424561,445.140594 315.448822,439.650696 
	C315.464294,436.154022 314.105103,435.059235 310.748688,434.979919 
	C302.428467,434.783234 294.090790,434.559296 285.804291,433.838623 
	C255.550934,431.207642 230.900345,403.384644 238.499512,367.431946 
	C242.713211,347.496399 256.237885,333.388733 276.491150,327.277374 
	C279.901917,326.248169 281.278656,324.969818 281.481628,321.305725 
	C281.848755,314.677704 282.247620,307.922089 283.822021,301.511749 
	C292.429596,266.465607 326.599640,244.332230 364.869965,254.671600 
	C367.898590,255.489822 370.953766,256.209625 372.724274,256.655060 
	C379.623779,247.038376 385.734741,237.768982 392.610107,229.106308 
	C404.181335,214.527100 420.354065,207.162430 437.705933,202.081482 
	C469.335358,192.819733 515.733032,205.537262 538.034241,245.251724 
	C546.630188,260.559662 551.311951,276.806885 550.818054,294.369293 
	C550.702087,298.493042 552.090881,300.452026 555.772400,302.193054 
	C579.933838,313.619263 594.847534,332.185211 598.164185,359.111420 
	C601.918518,389.591736 582.618042,420.241333 553.310791,429.741943 
	C545.024170,432.428223 536.100952,433.111877 527.528625,434.983673 
	C525.467102,435.433807 522.614075,436.475189 521.863464,438.065277 
	C513.688843,455.382996 498.950928,459.990234 481.442200,459.709778 
	C476.449219,459.629822 471.449188,460.030762 466.455017,459.975250 
	C462.473877,459.930969 460.845581,461.486084 460.876373,465.612671 
	C461.016815,484.427704 460.937958,503.244354 460.937958,522.060425 
	C460.447540,522.077209 459.957153,522.093994 459.466736,522.110779 
	C459.153992,520.174988 458.841248,518.239197 458.528503,516.303406 
	C458.184479,516.285278 457.840485,516.267151 457.496460,516.248962 
	C457.125854,520.581787 456.755280,524.914551 456.384674,529.247375 
	C455.721832,529.221924 455.059021,529.196533 454.396179,529.171082 
	C454.396179,497.995026 454.396179,466.818970 454.396179,435.267334 
	C443.525757,435.267334 433.976776,435.267334 424.134766,435.267334 
	C423.571198,469.749573 423.009949,504.089844 422.448700,538.430115 
	C422.099060,538.414124 421.749420,538.398132 421.399811,538.382141 
	C420.358734,527.200989 419.317657,516.019836 418.276581,504.838715 
	C418.153748,504.825531 418.030884,504.812347 417.908051,504.799164 
	C417.908051,517.681946 417.908051,530.564758 417.908051,543.447510 
	C417.455505,543.449646 417.002991,543.451843 416.550446,543.453979 
	C416.550446,507.517029 416.550446,471.580109 416.550446,435.265045 
	C406.110291,435.265045 396.377899,435.265045 385.632324,435.265045 
	C385.632324,464.927856 385.632324,494.640076 385.632324,524.352295 
	C384.919586,524.392883 384.206848,524.433472 383.494110,524.473999 
	C382.985443,518.308289 382.476776,512.142517 382.024597,505.053101 
	C382.081146,500.478088 382.081146,496.826721 382.081146,492.840607 
	C380.979431,495.865631 380.060181,498.389618 379.140930,500.913605 
M541.668518,281.087097 
	C541.279358,278.454468 541.088501,275.774353 540.470825,273.196472 
	C532.893555,241.569809 506.088654,212.623352 469.348389,208.586365 
	C431.091431,204.382690 396.408020,223.288559 381.122162,262.558716 
	C378.794464,268.538635 378.343292,268.933044 372.700592,266.146484 
	C359.720428,259.736389 345.838531,258.890533 332.223572,261.989319 
	C311.130096,266.790222 288.568329,288.896179 290.634521,315.098236 
	C290.869598,318.079041 290.729736,321.096527 290.648041,324.093811 
	C290.430084,332.089020 290.467621,332.443604 282.685486,333.815491 
	C265.359528,336.869781 246.342850,356.231659 244.904358,376.403015 
	C243.005310,403.032837 266.998993,428.810822 291.024780,426.088959 
	C296.948181,425.417908 303.012329,425.988861 309.011780,425.988861 
	C311.069611,425.988861 313.127472,425.988861 315.122498,425.988861 
	C315.854675,411.842621 315.847748,411.841797 307.440918,402.658478 
	C306.656403,401.801483 305.937653,400.872986 305.274963,399.917603 
	C301.097687,393.895050 301.096069,386.767212 305.240540,380.750458 
	C308.927551,375.397797 316.446716,372.445831 322.818939,373.849274 
	C329.392395,375.297028 334.876678,380.473145 335.873016,386.169769 
	C337.548126,395.747284 335.318542,401.080048 327.917694,405.947784 
	C326.237946,407.052612 323.873077,408.681641 323.718933,410.255035 
	C323.194794,415.604828 323.518555,421.037628 323.518555,426.499359 
	C342.178711,426.499359 360.414398,426.499359 379.021179,426.499359 
	C379.021179,424.508209 379.021210,422.865875 379.021210,421.223541 
	C379.021210,397.392426 378.917603,373.560394 379.124268,349.731049 
	C379.158295,345.808472 378.056061,343.898102 374.392487,342.368225 
	C367.423889,339.458344 363.847534,331.638855 365.370392,324.160187 
	C366.883118,316.731293 373.808746,310.365204 380.843597,309.937042 
	C389.006836,309.440216 396.668030,314.481293 399.079376,321.936310 
	C401.505615,329.437408 398.722961,337.364105 391.414764,341.703613 
	C387.905579,343.787323 386.914978,346.164642 386.922302,350.052795 
	C386.958069,369.049896 386.681183,388.047455 386.544006,407.045074 
	C386.497559,413.481079 386.536621,419.917694 386.536621,426.500244 
	C396.331024,426.500244 406.057404,426.500244 415.913971,426.500244 
	C416.336365,419.567383 417.453400,413.459930 409.617218,409.140839 
	C403.097229,405.547180 401.848694,398.144684 403.375824,390.963379 
	C404.819946,384.172485 409.735657,380.493286 416.258240,379.265442 
	C422.867188,378.021271 428.822845,379.295807 433.094879,385.240082 
	C439.842682,394.629272 437.709259,404.789001 427.566010,411.438965 
	C426.283112,412.280060 424.523834,413.555786 424.394073,414.779480 
	C423.983795,418.648163 424.242615,422.587738 424.242615,426.506012 
	C434.108856,426.506012 443.528534,426.506012 453.451996,426.506012 
	C453.451996,424.365021 453.451996,422.560516 453.451996,420.756012 
	C453.451996,381.592987 453.398010,342.429749 453.535095,303.267212 
	C453.548889,299.333557 452.580841,296.961182 448.929199,295.008820 
	C442.603699,291.626862 440.001160,285.623016 440.352081,278.679688 
	C440.672058,272.348389 443.573090,267.148224 449.397095,264.075653 
	C457.709778,259.690125 466.478149,262.168335 472.076965,270.352509 
	C476.347015,276.594391 475.043121,287.865875 468.114685,292.771210 
	C462.715698,296.593689 461.975983,301.099152 461.936768,306.772247 
	C461.678955,344.090179 461.294708,381.407227 460.957123,418.724609 
	C460.933746,421.310364 460.954071,423.896484 460.954071,426.464386 
	C479.997864,426.464386 498.393585,426.464386 517.515869,426.464386 
	C516.742371,413.094513 516.112183,400.137390 515.115601,387.208496 
	C514.966980,385.279602 513.463623,383.084473 511.956207,381.698792 
	C506.976624,377.121490 503.147186,372.097046 503.600800,364.922546 
	C504.098206,357.056305 511.206512,349.775085 519.053833,348.943695 
	C526.611450,348.142944 534.961304,353.682587 536.809692,360.723663 
	C539.091919,369.417542 535.251465,378.406647 527.922241,381.963135 
	C526.478516,382.663635 524.301147,384.049805 524.281128,385.152649 
	C524.031677,398.938904 524.117737,412.731232 524.117737,426.963989 
	C527.936768,426.652588 531.209412,426.323669 534.489990,426.127747 
	C570.390625,423.984222 597.319092,388.953674 589.436340,353.865570 
	C584.158142,330.370972 569.304260,314.958923 546.551147,307.314026 
	C543.327576,306.230927 542.000305,304.982361 542.095642,301.482574 
	C542.272461,294.993530 541.927551,288.490295 541.668518,281.087097 
M379.019958,453.500488 
	C379.019958,447.404724 379.019958,441.308960 379.019958,435.179443 
	C360.077728,435.179443 341.844238,435.179443 322.646484,435.179443 
	C323.231842,443.766266 323.542633,452.028473 324.417786,460.230469 
	C325.523499,470.593689 332.655457,477.309570 341.660034,479.118225 
	C353.665955,481.529663 366.257812,481.024017 379.019989,481.796906 
	C379.019989,471.764587 379.019989,463.132507 379.019958,453.500488 
M504.655334,447.338837 
	C508.048584,443.781250 511.441833,440.223633 514.835083,436.666046 
	C514.471252,436.209259 514.107361,435.752441 513.743469,435.295624 
	C496.259827,435.295624 478.776184,435.295624 461.177521,435.295624 
	C461.177521,440.554504 461.177521,445.604584 461.177521,450.948700 
	C467.119415,451.261719 472.717957,451.727234 478.322327,451.812622 
	C487.108398,451.946411 495.962830,452.228271 504.655334,447.338837 
M325.511566,382.749084 
	C319.904816,379.928345 312.460358,381.723297 310.363251,386.401550 
	C307.990967,391.693695 310.905273,398.213135 316.597382,400.185852 
	C321.577972,401.911957 324.928345,399.045502 327.757111,395.682190 
	C330.982025,391.847870 330.414246,388.823242 325.511566,382.749084 
M530.497681,367.119659 
	C530.274719,365.673767 530.385193,364.062805 529.766235,362.812988 
	C527.918274,359.081207 525.124939,356.224762 520.672302,356.085358 
	C516.030151,355.940063 513.583801,359.079102 511.766052,362.834961 
	C510.024597,366.433014 511.031555,369.699280 513.429382,372.492828 
	C518.837891,378.794006 526.928650,376.509125 530.497681,367.119659 
M424.806488,387.428345 
	C420.420441,384.886536 416.006195,385.603668 413.047058,389.157318 
	C411.220276,391.351044 410.280762,395.213928 410.663025,398.099579 
	C411.241760,402.468781 414.973083,404.591553 419.318665,405.015503 
	C423.287048,405.402679 426.768738,404.116943 428.494537,400.400482 
	C430.721008,395.605927 429.419250,391.337402 424.806488,387.428345 
M390.446960,332.711700 
	C393.058044,327.524658 392.692047,323.654633 389.136200,320.510651 
	C385.678314,317.453278 381.768799,316.759979 377.598145,318.911682 
	C373.259430,321.150177 372.052429,324.969788 372.963226,329.470306 
	C374.489136,337.010193 383.082703,338.914093 390.446960,332.711700 
M450.367462,285.980804 
	C453.567108,289.763397 457.392273,290.852509 461.809357,288.325928 
	C465.736725,286.079498 467.729034,280.761871 466.381042,276.741882 
	C464.880524,272.266937 461.132019,269.803284 456.541107,269.912109 
	C450.815613,270.047821 444.814026,277.747772 450.367462,285.980804 
z"/>
<path fill="#48BCFF" opacity="1.000000" stroke="none" 
	d="
M260.911377,596.950562 
	C259.641235,605.489258 256.093628,608.789307 248.043915,608.981323 
	C242.060638,609.124084 236.071213,609.009460 229.665253,609.009460 
	C229.665253,594.720276 229.665253,580.693176 229.665253,566.291931 
	C236.228012,566.291931 242.686203,565.966370 249.090836,566.411377 
	C253.067017,566.687683 256.304932,568.971680 257.574188,573.151306 
	C259.152618,578.348999 256.839294,582.170471 252.689041,585.479553 
	C257.755798,587.717163 261.039337,590.927673 260.911377,596.950562 
M249.332031,588.792969 
	C244.600616,588.570068 239.869186,588.347229 235.009796,588.118286 
	C235.009796,594.115601 235.009796,599.209045 235.009796,604.767761 
	C239.565598,604.767761 243.867371,605.034912 248.118866,604.687134 
	C251.829102,604.383606 254.870102,602.674805 255.284790,598.364868 
	C255.696503,594.085999 255.172592,590.277771 249.332031,588.792969 
M236.796722,570.264282 
	C236.116257,571.028992 234.895386,571.761902 234.848145,572.563904 
	C234.635330,576.177063 234.755310,579.809875 234.755310,583.961853 
	C239.173615,583.961853 243.135147,584.173157 247.063171,583.900879 
	C250.792389,583.642395 252.671036,581.078857 252.847046,577.529236 
	C253.023376,573.973572 251.498840,571.259155 247.657166,570.796814 
	C244.366196,570.400635 241.027069,570.404663 236.796722,570.264282 
z"/>
<path fill="#40B9FF" opacity="1.000000" stroke="none" 
	d="
M607.613464,599.929382 
	C607.613098,603.057434 607.613098,605.697021 607.613098,609.956360 
	C604.851074,608.471863 603.060181,607.509277 600.536072,606.152649 
	C600.545837,606.145386 599.431641,607.117676 598.188171,607.878906 
	C591.556091,611.939026 582.446838,609.452820 579.935181,602.084961 
	C578.396667,597.572144 577.847656,592.202698 578.637390,587.518555 
	C580.557739,576.127441 590.862671,572.839600 602.461304,580.236267 
	C602.461304,575.685730 602.223938,571.660339 602.587219,567.690002 
	C602.718445,566.256104 604.290405,564.954163 605.205017,563.592041 
	C606.007812,564.905334 607.483398,566.206543 607.507141,567.533752 
	C607.697632,578.166687 607.613708,588.804565 607.613464,599.929382 
M598.043640,603.850342 
	C602.810486,599.121460 604.149597,590.623535 600.930725,585.041687 
	C598.877441,581.481018 595.623047,580.103943 591.652649,580.544556 
	C584.823303,581.302429 581.481079,588.067505 583.427307,596.996582 
	C585.027100,604.336853 589.301270,606.555115 598.043640,603.850342 
z"/>
<path fill="#42BAFF" opacity="1.000000" stroke="none" 
	d="
M439.673157,593.161255 
	C439.800171,588.290894 439.351593,583.672058 440.394440,579.418945 
	C442.137329,572.310669 446.784912,567.397888 454.298248,565.995667 
	C460.980713,564.748535 467.313812,565.352661 472.182159,570.847351 
	C474.770386,573.768555 474.569550,574.382568 471.757080,576.122925 
	C468.157135,574.094788 465.165009,571.543152 461.741516,570.655579 
	C453.952393,568.636292 447.885437,572.461182 445.831818,580.323486 
	C445.007416,583.479614 444.872528,586.908813 444.977112,590.196167 
	C445.228363,598.095398 449.128723,603.200928 455.591736,604.677002 
	C462.087097,606.160461 466.717133,603.681519 470.894592,596.396729 
	C474.742981,596.626648 475.065765,598.417664 473.441284,601.569763 
	C468.089569,611.953796 451.116760,612.702942 443.769257,602.600281 
	C441.877136,599.998657 441.072235,596.606262 439.673157,593.161255 
z"/>
<path fill="#45BBFF" opacity="1.000000" stroke="none" 
	d="
M349.918213,601.535950 
	C350.728516,603.019531 351.509155,604.073608 352.345306,605.081543 
	C353.123749,606.020020 353.961212,606.909485 354.772705,607.820496 
	C354.447723,608.410522 354.122772,609.000549 353.797791,609.590576 
	C350.843994,608.701355 347.890228,607.812195 343.911224,606.614319 
	C341.171967,609.090088 336.752106,610.799500 331.445679,609.123718 
	C327.421844,607.853027 325.500183,605.032654 325.137604,601.035461 
	C324.774414,597.032104 326.056335,593.591614 329.922302,592.003357 
	C333.124146,590.687988 336.765259,590.406738 339.905182,588.988586 
	C341.848999,588.110596 344.468140,586.049500 344.583832,584.368164 
	C344.814331,581.017273 341.495636,580.093262 338.806244,580.584595 
	C335.380707,581.210388 332.113800,582.704712 327.822266,584.145752 
	C326.227081,583.076355 325.770203,581.316833 328.640137,579.239502 
	C333.299896,575.866638 338.408234,575.115723 343.815430,576.797302 
	C348.025909,578.106750 349.801514,581.369812 349.873474,585.588074 
	C349.961609,590.752930 349.906158,595.920166 349.918213,601.535950 
M331.654236,596.119812 
	C329.446716,598.858948 329.139435,602.221069 331.944550,603.990967 
	C334.053802,605.321838 337.861755,605.674622 340.137573,604.682678 
	C345.421906,602.379333 345.489532,597.341248 344.727264,592.130005 
	C342.507660,592.726074 340.446503,593.261169 338.396240,593.835327 
	C336.345276,594.409790 334.305237,595.023376 331.654236,596.119812 
z"/>
<path fill="#43BAFF" opacity="1.000000" stroke="none" 
	d="
M409.785217,578.736938 
	C411.418091,577.583618 412.925293,576.780945 414.432465,575.978333 
	C414.756012,576.329590 415.079559,576.680908 415.403107,577.032166 
	C412.820679,583.792480 410.272308,590.566040 407.645874,597.309265 
	C405.171936,603.660950 402.895660,610.111267 400.018524,616.278381 
	C397.016846,622.712341 391.410278,624.366699 383.122284,620.841248 
	C385.224884,619.634521 386.496765,618.290161 387.803772,618.255127 
	C395.680664,618.043884 399.014954,613.156860 396.115753,605.701843 
	C392.448639,596.272217 388.777313,586.844299 385.034790,577.228149 
	C388.578186,575.660034 390.272247,576.709106 391.486694,580.098938 
	C394.174438,587.601196 397.225220,594.973328 400.472198,603.279297 
	C403.734528,594.688965 406.697021,586.888306 409.785217,578.736938 
z"/>
<path fill="#42BAFF" opacity="1.000000" stroke="none" 
	d="
M567.507324,579.676392 
	C567.510864,589.568970 567.510864,599.034973 567.510864,609.728577 
	C564.857056,608.617493 562.998657,607.839417 560.549561,606.814026 
	C560.122437,607.063293 559.028381,607.781067 557.867676,608.366577 
	C549.839417,612.416626 542.068237,608.160828 541.263977,599.279297 
	C541.174194,598.287537 541.199524,597.283997 541.198669,596.285889 
	C541.193481,589.974854 541.196045,583.663879 541.196045,576.920288 
	C542.789551,576.776917 544.178711,576.651978 545.547302,576.528809 
	C545.872864,577.302368 546.216309,577.742126 546.220642,578.185181 
	C546.280518,584.341003 546.259155,590.497742 546.328064,596.653442 
	C546.398071,602.901978 547.796448,604.841797 552.320251,605.189148 
	C557.618774,605.595947 561.503845,602.766541 561.965393,597.360596 
	C562.459412,591.573486 562.146423,585.721252 562.436523,579.909973 
	C562.493469,578.769775 563.696045,577.686768 564.370178,576.577393 
	C565.414673,577.468201 566.459229,578.359070 567.507324,579.676392 
z"/>
<path fill="#43BAFF" opacity="1.000000" stroke="none" 
	d="
M507.617615,578.414978 
	C515.892212,574.535706 523.656433,575.667725 527.948547,581.115967 
	C532.459106,586.841370 532.581726,598.411194 528.147827,604.170166 
	C524.534851,608.862854 519.551025,610.263428 513.947083,609.584656 
	C508.370575,608.909180 504.469574,605.890198 502.465973,600.520020 
	C499.519409,592.622498 501.380463,584.083435 507.617615,578.414978 
M506.289978,591.776489 
	C506.500397,593.743164 506.591766,595.731567 506.944916,597.672241 
	C507.797546,602.357666 510.598480,604.910400 515.440369,605.129456 
	C520.853027,605.374329 524.475586,603.287415 525.392029,598.261902 
	C526.055359,594.624512 526.146729,590.591614 525.279907,587.030334 
	C523.738525,580.697571 514.725525,578.071899 510.116791,582.645691 
	C508.108246,584.638977 507.604218,588.148315 506.289978,591.776489 
z"/>
<path fill="#40B9FF" opacity="1.000000" stroke="none" 
	d="
M293.597595,578.948853 
	C294.245300,579.441223 295.193237,579.910095 295.441864,579.666138 
	C299.648560,575.538879 304.585419,575.006470 309.745239,577.090576 
	C314.980835,579.205322 315.344452,584.131104 315.453827,588.853516 
	C315.603699,595.322327 315.491272,601.797241 315.491272,608.664062 
	C313.805573,608.785767 312.420990,608.885681 310.350006,609.035156 
	C310.350006,602.217468 310.390076,595.782837 310.338867,589.348877 
	C310.286346,582.751099 308.908844,580.835938 304.165771,580.498230 
	C298.641479,580.104919 294.712799,582.953979 294.157410,588.621216 
	C293.623993,594.064331 293.740082,599.589539 293.866760,605.071838 
	C293.944031,608.413757 292.918976,609.784851 289.232849,608.592407 
	C289.232849,598.278259 289.232849,587.855774 289.232849,576.002930 
	C290.988892,577.051270 292.280640,577.822388 293.597595,578.948853 
z"/>
<path fill="#48BCFF" opacity="1.000000" stroke="none" 
	d="
M362.172333,600.915222 
	C362.172455,592.775024 362.172455,585.120544 362.172455,577.342712 
	C365.837982,575.381104 367.365662,576.679138 367.173615,580.715820 
	C372.309113,575.838135 375.245544,575.234436 380.858826,577.838623 
	C380.477692,579.018433 380.086548,580.229126 379.711029,581.391479 
	C370.425476,580.517639 367.792664,582.699890 367.426758,591.837524 
	C367.207581,597.311340 367.386505,602.800964 367.386505,608.677673 
	C365.682770,608.807251 364.295258,608.912842 362.172211,609.074402 
	C362.172211,606.262329 362.172211,603.831604 362.172333,600.915222 
z"/>
<path fill="#43BAFF" opacity="1.000000" stroke="none" 
	d="
M488.918274,567.375793 
	C488.918701,578.471802 488.926544,589.114685 488.914093,599.757507 
	C488.910889,602.509399 488.688446,605.266418 492.804810,605.222046 
	C493.476135,605.214783 494.723267,606.650024 494.690094,607.371887 
	C494.654449,608.146606 493.546875,609.283630 492.690826,609.539795 
	C488.221161,610.877197 484.097931,607.350403 484.014771,601.993896 
	C483.885742,593.681213 483.976990,585.364990 483.975525,577.050293 
	C483.974792,572.782410 483.975433,568.514587 483.975433,564.121582 
	C486.907623,563.227478 489.217865,562.801697 488.918274,567.375793 
z"/>
<path fill="#48BCFF" opacity="1.000000" stroke="none" 
	d="
M271.172302,591.005493 
	C271.172455,586.053711 271.172455,581.600159 271.172455,576.824585 
	C272.980896,576.824585 274.371460,576.824585 276.045502,576.824585 
	C276.045502,587.411133 276.045502,597.823730 276.045502,608.674377 
	C274.718140,608.792847 273.342590,608.915588 271.172180,609.109253 
	C271.172180,602.986084 271.172180,597.244873 271.172302,591.005493 
z"/>
<path fill="#88D3FF" opacity="1.000000" stroke="none" 
	d="
M379.056458,501.382629 
	C380.060181,498.389618 380.979431,495.865631 382.081146,492.840607 
	C382.081146,496.826721 382.081146,500.478088 382.022827,504.593079 
	C381.633240,507.275574 381.057953,509.489868 381.016296,511.714142 
	C380.890076,518.449768 380.970673,525.189270 380.970673,531.927246 
	C380.304443,531.926208 379.638214,531.925232 378.971985,531.924255 
	C378.971985,521.900085 378.971985,511.875885 379.056458,501.382629 
z"/>
<path fill="#43BAFF" opacity="1.000000" stroke="none" 
	d="
M276.994904,566.372986 
	C275.881012,567.982422 274.870087,569.508362 273.449860,570.300964 
	C273.030426,570.535034 270.836365,568.842224 270.586914,567.769348 
	C270.346222,566.734192 271.636139,564.295959 272.130646,564.328735 
	C273.764221,564.437134 275.342163,565.384155 276.994904,566.372986 
z"/>
<path fill="#FEFFFF" opacity="1.000000" stroke="none" 
	d="
M541.734253,281.540039 
	C541.927551,288.490295 542.272461,294.993530 542.095642,301.482574 
	C542.000305,304.982361 543.327576,306.230927 546.551147,307.314026 
	C569.304260,314.958923 584.158142,330.370972 589.436340,353.865570 
	C597.319092,388.953674 570.390625,423.984222 534.489990,426.127747 
	C531.209412,426.323669 527.936768,426.652588 524.117737,426.963989 
	C524.117737,412.731232 524.031677,398.938904 524.281128,385.152649 
	C524.301147,384.049805 526.478516,382.663635 527.922241,381.963135 
	C535.251465,378.406647 539.091919,369.417542 536.809692,360.723663 
	C534.961304,353.682587 526.611450,348.142944 519.053833,348.943695 
	C511.206512,349.775085 504.098206,357.056305 503.600800,364.922546 
	C503.147186,372.097046 506.976624,377.121490 511.956207,381.698792 
	C513.463623,383.084473 514.966980,385.279602 515.115601,387.208496 
	C516.112183,400.137390 516.742371,413.094513 517.515869,426.464386 
	C498.393585,426.464386 479.997864,426.464386 460.954071,426.464386 
	C460.954071,423.896484 460.933746,421.310364 460.957123,418.724609 
	C461.294708,381.407227 461.678955,344.090179 461.936768,306.772247 
	C461.975983,301.099152 462.715698,296.593689 468.114685,292.771210 
	C475.043121,287.865875 476.347015,276.594391 472.076965,270.352509 
	C466.478149,262.168335 457.709778,259.690125 449.397095,264.075653 
	C443.573090,267.148224 440.672058,272.348389 440.352081,278.679688 
	C440.001160,285.623016 442.603699,291.626862 448.929199,295.008820 
	C452.580841,296.961182 453.548889,299.333557 453.535095,303.267212 
	C453.398010,342.429749 453.451996,381.592987 453.451996,420.756012 
	C453.451996,422.560516 453.451996,424.365021 453.451996,426.506012 
	C443.528534,426.506012 434.108856,426.506012 424.242615,426.506012 
	C424.242615,422.587738 423.983795,418.648163 424.394073,414.779480 
	C424.523834,413.555786 426.283112,412.280060 427.566010,411.438965 
	C437.709259,404.789001 439.842682,394.629272 433.094879,385.240082 
	C428.822845,379.295807 422.867188,378.021271 416.258240,379.265442 
	C409.735657,380.493286 404.819946,384.172485 403.375824,390.963379 
	C401.848694,398.144684 403.097229,405.547180 409.617218,409.140839 
	C417.453400,413.459930 416.336365,419.567383 415.913971,426.500244 
	C406.057404,426.500244 396.331024,426.500244 386.536621,426.500244 
	C386.536621,419.917694 386.497559,413.481079 386.544006,407.045074 
	C386.681183,388.047455 386.958069,369.049896 386.922302,350.052795 
	C386.914978,346.164642 387.905579,343.787323 391.414764,341.703613 
	C398.722961,337.364105 401.505615,329.437408 399.079376,321.936310 
	C396.668030,314.481293 389.006836,309.440216 380.843597,309.937042 
	C373.808746,310.365204 366.883118,316.731293 365.370392,324.160187 
	C363.847534,331.638855 367.423889,339.458344 374.392487,342.368225 
	C378.056061,343.898102 379.158295,345.808472 379.124268,349.731049 
	C378.917603,373.560394 379.021210,397.392426 379.021210,421.223541 
	C379.021210,422.865875 379.021179,424.508209 379.021179,426.499359 
	C360.414398,426.499359 342.178711,426.499359 323.518555,426.499359 
	C323.518555,421.037628 323.194794,415.604828 323.718933,410.255035 
	C323.873077,408.681641 326.237946,407.052612 327.917694,405.947784 
	C335.318542,401.080048 337.548126,395.747284 335.873016,386.169769 
	C334.876678,380.473145 329.392395,375.297028 322.818939,373.849274 
	C316.446716,372.445831 308.927551,375.397797 305.240540,380.750458 
	C301.096069,386.767212 301.097687,393.895050 305.274963,399.917603 
	C305.937653,400.872986 306.656403,401.801483 307.440918,402.658478 
	C315.847748,411.841797 315.854675,411.842621 315.122498,425.988861 
	C313.127472,425.988861 311.069611,425.988861 309.011780,425.988861 
	C303.012329,425.988861 296.948181,425.417908 291.024780,426.088959 
	C266.998993,428.810822 243.005310,403.032837 244.904358,376.403015 
	C246.342850,356.231659 265.359528,336.869781 282.685486,333.815491 
	C290.467621,332.443604 290.430084,332.089020 290.648041,324.093811 
	C290.729736,321.096527 290.869598,318.079041 290.634521,315.098236 
	C288.568329,288.896179 311.130096,266.790222 332.223572,261.989319 
	C345.838531,258.890533 359.720428,259.736389 372.700592,266.146484 
	C378.343292,268.933044 378.794464,268.538635 381.122162,262.558716 
	C396.408020,223.288559 431.091431,204.382690 469.348389,208.586365 
	C506.088654,212.623352 532.893555,241.569809 540.470825,273.196472 
	C541.088501,275.774353 541.279358,278.454468 541.734253,281.540039 
z"/>
<path fill="#FEFFFF" opacity="1.000000" stroke="none" 
	d="
M379.019958,454.000427 
	C379.019989,463.132507 379.019989,471.764587 379.019989,481.796906 
	C366.257812,481.024017 353.665955,481.529663 341.660034,479.118225 
	C332.655457,477.309570 325.523499,470.593689 324.417786,460.230469 
	C323.542633,452.028473 323.231842,443.766266 322.646484,435.179443 
	C341.844238,435.179443 360.077728,435.179443 379.019958,435.179443 
	C379.019958,441.308960 379.019958,447.404724 379.019958,454.000427 
z"/>
<path fill="#FCFEFF" opacity="1.000000" stroke="none" 
	d="
M504.348450,447.547974 
	C495.962830,452.228271 487.108398,451.946411 478.322327,451.812622 
	C472.717957,451.727234 467.119415,451.261719 461.177521,450.948700 
	C461.177521,445.604584 461.177521,440.554504 461.177521,435.295624 
	C478.776184,435.295624 496.259827,435.295624 513.743469,435.295624 
	C514.107361,435.752441 514.471252,436.209259 514.835083,436.666046 
	C511.441833,440.223633 508.048584,443.781250 504.348450,447.547974 
z"/>
<path fill="#FAFDFF" opacity="1.000000" stroke="none" 
	d="
M325.799561,383.004517 
	C330.414246,388.823242 330.982025,391.847870 327.757111,395.682190 
	C324.928345,399.045502 321.577972,401.911957 316.597382,400.185852 
	C310.905273,398.213135 307.990967,391.693695 310.363251,386.401550 
	C312.460358,381.723297 319.904816,379.928345 325.799561,383.004517 
z"/>
<path fill="#FAFDFF" opacity="1.000000" stroke="none" 
	d="
M530.391602,367.474182 
	C526.928650,376.509125 518.837891,378.794006 513.429382,372.492828 
	C511.031555,369.699280 510.024597,366.433014 511.766052,362.834961 
	C513.583801,359.079102 516.030151,355.940063 520.672302,356.085358 
	C525.124939,356.224762 527.918274,359.081207 529.766235,362.812988 
	C530.385193,364.062805 530.274719,365.673767 530.391602,367.474182 
z"/>
<path fill="#FAFDFF" opacity="1.000000" stroke="none" 
	d="
M425.106812,387.668579 
	C429.419250,391.337402 430.721008,395.605927 428.494537,400.400482 
	C426.768738,404.116943 423.287048,405.402679 419.318665,405.015503 
	C414.973083,404.591553 411.241760,402.468781 410.663025,398.099579 
	C410.280762,395.213928 411.220276,391.351044 413.047058,389.157318 
	C416.006195,385.603668 420.420441,384.886536 425.106812,387.668579 
z"/>
<path fill="#FCFEFF" opacity="1.000000" stroke="none" 
	d="
M390.203400,333.016296 
	C383.082703,338.914093 374.489136,337.010193 372.963226,329.470306 
	C372.052429,324.969788 373.259430,321.150177 377.598145,318.911682 
	C381.768799,316.759979 385.678314,317.453278 389.136200,320.510651 
	C392.692047,323.654633 393.058044,327.524658 390.203400,333.016296 
z"/>
<path fill="#FAFDFF" opacity="1.000000" stroke="none" 
	d="
M450.156281,285.660522 
	C444.814026,277.747772 450.815613,270.047821 456.541107,269.912109 
	C461.132019,269.803284 464.880524,272.266937 466.381042,276.741882 
	C467.729034,280.761871 465.736725,286.079498 461.809357,288.325928 
	C457.392273,290.852509 453.567108,289.763397 450.156281,285.660522 
z"/>
<path fill="#F9FDFF" opacity="1.000000" stroke="none" 
	d="
M249.745758,588.860229 
	C255.172592,590.277771 255.696503,594.085999 255.284790,598.364868 
	C254.870102,602.674805 251.829102,604.383606 248.118866,604.687134 
	C243.867371,605.034912 239.565598,604.767761 235.009796,604.767761 
	C235.009796,599.209045 235.009796,594.115601 235.009796,588.118286 
	C239.869186,588.347229 244.600616,588.570068 249.745758,588.860229 
z"/>
<path fill="#F9FDFF" opacity="1.000000" stroke="none" 
	d="
M237.252975,570.247986 
	C241.027069,570.404663 244.366196,570.400635 247.657166,570.796814 
	C251.498840,571.259155 253.023376,573.973572 252.847046,577.529236 
	C252.671036,581.078857 250.792389,583.642395 247.063171,583.900879 
	C243.135147,584.173157 239.173615,583.961853 234.755310,583.961853 
	C234.755310,579.809875 234.635330,576.177063 234.848145,572.563904 
	C234.895386,571.761902 236.116257,571.028992 237.252975,570.247986 
z"/>
<path fill="#FAFDFF" opacity="1.000000" stroke="none" 
	d="
M597.684021,604.029663 
	C589.301270,606.555115 585.027100,604.336853 583.427307,596.996582 
	C581.481079,588.067505 584.823303,581.302429 591.652649,580.544556 
	C595.623047,580.103943 598.877441,581.481018 600.930725,585.041687 
	C604.149597,590.623535 602.810486,599.121460 597.684021,604.029663 
z"/>
<path fill="#F9FDFF" opacity="1.000000" stroke="none" 
	d="
M331.957336,595.869873 
	C334.305237,595.023376 336.345276,594.409790 338.396240,593.835327 
	C340.446503,593.261169 342.507660,592.726074 344.727264,592.130005 
	C345.489532,597.341248 345.421906,602.379333 340.137573,604.682678 
	C337.861755,605.674622 334.053802,605.321838 331.944550,603.990967 
	C329.139435,602.221069 329.446716,598.858948 331.957336,595.869873 
z"/>
<path fill="#FAFDFF" opacity="1.000000" stroke="none" 
	d="
M506.353455,591.372803 
	C507.604218,588.148315 508.108246,584.638977 510.116791,582.645691 
	C514.725525,578.071899 523.738525,580.697571 525.279907,587.030334 
	C526.146729,590.591614 526.055359,594.624512 525.392029,598.261902 
	C524.475586,603.287415 520.853027,605.374329 515.440369,605.129456 
	C510.598480,604.910400 507.797546,602.357666 506.944916,597.672241 
	C506.591766,595.731567 506.500397,593.743164 506.353455,591.372803 
z"/>
</svg>