<?xml version="1.0" standalone="no"?>
<!DOCTYPE svg PUBLIC "-//W3C//DTD SVG 20010904//EN"
 "http://www.w3.org/TR/2001/REC-SVG-20010904/DTD/svg10.dtd">
<svg version="1.0" xmlns="http://www.w3.org/2000/svg"
 width="640.000000pt" height="640.000000pt" viewBox="0 0 640.000000 640.000000"
 preserveAspectRatio="xMidYMid meet">

<g transform="translate(0.000000,640.000000) scale(0.100000,-0.100000)"
fill="#000000" stroke="none">
<path d="M3314 4906 c-79 -18 -170 -55 -240 -97 -81 -49 -192 -170 -234 -254
-19 -38 -35 -71 -35 -72 -1 -1 -29 7 -64 17 -122 38 -291 20 -393 -43 -21 -12
-61 -45 -89 -72 -92 -89 -140 -195 -148 -329 l-6 -89 -42 -12 c-107 -32 -199
-113 -252 -225 -33 -69 -35 -82 -35 -165 0 -136 51 -243 155 -325 80 -63 143
-82 297 -89 l134 -6 3 -102 c4 -115 17 -153 70 -211 57 -64 118 -82 275 -82
l130 0 2 -212 2 -213 6 205 5 205 7 -129 c4 -72 12 -134 18 -140 7 -7 10 103
10 337 l0 347 115 0 115 0 2 -512 c3 -510 3 -511 8 -173 5 288 6 311 9 155 2
-102 6 -174 10 -160 3 14 8 -29 11 -95 5 -102 14 357 15 708 l0 77 113 0 112
0 0 -253 c0 -306 11 -529 21 -452 4 28 9 97 10 155 3 86 4 72 9 -80 5 -172 6
-163 8 122 1 180 6 309 11 313 6 3 65 7 133 8 70 2 141 9 166 16 56 19 115 71
142 126 21 43 24 45 64 45 74 0 159 20 231 55 260 126 366 424 243 683 -44 93
-142 193 -234 239 l-74 36 0 66 c-1 234 -133 468 -334 590 -136 82 -342 119
-482 87z m281 -71 c210 -54 370 -206 446 -425 17 -50 22 -91 24 -179 l2 -114
39 -12 c143 -43 271 -175 309 -320 33 -129 12 -258 -60 -367 -83 -126 -201
-195 -347 -205 l-78 -6 0 164 0 165 30 11 c60 23 89 118 55 183 -21 40 -84 72
-127 64 -80 -16 -128 -89 -108 -165 9 -33 50 -80 78 -91 5 -1 12 -76 15 -165
l5 -163 -213 0 -213 0 3 53 c1 28 3 249 3 490 2 352 5 437 15 437 7 0 29 16
48 36 30 31 34 41 34 89 0 43 -5 58 -25 80 -52 55 -98 67 -157 38 -95 -45 -97
-190 -3 -238 l30 -16 0 -484 0 -485 -112 0 -113 0 2 32 c1 18 2 43 2 56 1 12
7 22 15 22 21 0 73 64 81 99 4 20 0 44 -13 75 -32 71 -103 95 -178 60 -90 -43
-86 -181 7 -229 26 -14 29 -20 29 -65 l0 -50 -114 0 -114 0 3 148 c1 81 2 220
3 309 l2 161 33 20 c70 41 85 137 31 193 -54 57 -125 62 -183 13 -72 -60 -56
-179 29 -214 l30 -12 0 -309 0 -309 -210 0 -210 0 0 70 c0 65 2 71 23 79 13 5
36 24 51 42 25 29 28 39 24 88 -4 45 -10 59 -36 82 -38 34 -70 43 -116 35 -46
-9 -82 -39 -96 -82 -21 -63 1 -115 72 -167 12 -9 18 -29 19 -77 l3 -65 -140 0
c-132 0 -142 2 -196 28 -64 31 -119 88 -163 168 -27 49 -30 62 -30 149 1 84 4
101 28 148 52 99 146 177 240 196 15 3 37 8 50 11 21 4 22 8 22 117 0 106 2
117 31 178 45 95 111 162 201 207 65 32 86 37 162 41 91 4 180 -13 229 -45 26
-16 52 -11 52 11 0 30 82 174 129 227 151 169 392 241 616 184z m-118 -467
c30 -28 30 -74 1 -105 -36 -39 -92 -29 -113 21 -32 76 52 140 112 84z m-560
-360 c48 -45 16 -122 -52 -122 -27 0 -43 6 -56 23 -60 74 39 164 108 99z
m1038 -293 c30 -30 32 -64 4 -99 -41 -52 -129 -19 -129 49 0 12 9 34 21 49 27
34 71 35 104 1z m-1534 -165 c20 0 49 -41 49 -69 0 -40 -53 -85 -89 -76 -42
11 -61 34 -61 77 0 32 5 41 33 58 17 11 38 18 45 15 8 -3 18 -5 23 -5z m782
-62 c23 -27 22 -73 -4 -99 -29 -29 -85 -23 -112 12 -55 75 55 158 116 87z
m-363 -513 l0 -175 -125 0 c-137 0 -179 10 -227 57 -14 14 -30 26 -34 26 -4 1
-9 9 -10 17 -1 8 -7 31 -13 50 -6 19 -11 72 -11 117 l0 83 210 0 210 0 0 -175z
m1020 167 c0 -5 -16 -27 -35 -49 -53 -62 -96 -74 -245 -71 l-125 3 -1 63 -2
62 204 0 c112 0 204 -4 204 -8z m-1079 -373 c-16 -6 -28 -6 -35 1 -7 7 1 10
25 9 32 0 33 -1 10 -10z"/>
<path d="M2818 2289 c-9 -16 -14 -29 -9 -29 8 0 34 50 29 56 -2 1 -11 -11 -20
-27z"/>
<path d="M3410 2305 c0 -5 9 -23 20 -40 26 -39 26 -25 0 17 -11 18 -20 29 -20
23z"/>
<path d="M3507 2199 c7 -7 15 -10 18 -7 3 3 -2 9 -12 12 -14 6 -15 5 -6 -5z"/>
<path d="M2757 2193 c-4 -3 -7 -11 -7 -17 0 -6 5 -5 12 2 6 6 9 14 7 17 -3 3
-9 2 -12 -2z"/>
<path d="M2663 2123 c9 -2 25 -2 35 0 9 3 1 5 -18 5 -19 0 -27 -2 -17 -5z"/>
<path d="M3618 2123 c7 -3 16 -2 19 1 4 3 -2 6 -13 5 -11 0 -14 -3 -6 -6z"/>
<path d="M2605 2110 c-3 -6 1 -7 9 -4 18 7 21 14 7 14 -6 0 -13 -4 -16 -10z"/>
<path d="M2776 2067 c3 -10 9 -15 12 -12 3 3 0 11 -7 18 -10 9 -11 8 -5 -6z"/>
<path d="M3539 2053 c-13 -16 -12 -17 4 -4 9 7 17 15 17 17 0 8 -8 3 -21 -13z"/>
<path d="M3716 2045 c8 -37 14 -45 14 -19 0 10 -5 26 -10 34 -8 11 -9 7 -4
-15z"/>
<path d="M3261 2034 c0 -11 3 -14 6 -6 3 7 2 16 -1 19 -3 4 -6 -2 -5 -13z"/>
<path d="M2791 2024 c0 -11 3 -14 6 -6 3 7 2 16 -1 19 -3 4 -6 -2 -5 -13z"/>
<path d="M2591 1994 c0 -11 3 -14 6 -6 3 7 2 16 -1 19 -3 4 -6 -2 -5 -13z"/>
<path d="M2668 1873 c6 -2 18 -2 25 0 6 3 1 5 -13 5 -14 0 -19 -2 -12 -5z"/>
<path d="M3598 1873 c7 -3 16 -2 19 1 4 3 -2 6 -13 5 -11 0 -14 -3 -6 -6z"/>
</g>
</svg>
